<?xml version="1.0" encoding="UTF-8"?>
<svg width="256" height="256" viewBox="0 0 256 256" fill="none" xmlns="http://www.w3.org/2000/svg">
  <defs>
    <linearGradient id="g" x1="36" y1="22" x2="220" y2="236" gradientUnits="userSpaceOnUse">
      <stop stop-color="#E7C8A5"/>
      <stop offset="0.55" stop-color="#F6B07A"/>
      <stop offset="1" stop-color="#F19A59"/>
    </linearGradient>
    <linearGradient id="glass" x1="68" y1="72" x2="190" y2="184" gradientUnits="userSpaceOnUse">
      <stop stop-color="white" stop-opacity="0.92"/>
      <stop offset="1" stop-color="white" stop-opacity="0.78"/>
    </linearGradient>
    <filter id="softShadow" x="-20%" y="-20%" width="140%" height="140%" color-interpolation-filters="sRGB">
      <feDropShadow dx="0" dy="10" stdDeviation="14" flood-color="#000000" flood-opacity="0.28"/>
    </filter>
  </defs>

  <!-- Rounded square base (original, not a copy of IG/YT marks) -->
  <rect x="16" y="16" width="224" height="224" rx="52" fill="url(#g)" filter="url(#softShadow)"/>

  <!-- Inner plate -->
  <rect x="58" y="72" width="140" height="112" rx="30" fill="url(#glass)" opacity="0.98"/>
  <rect x="58" y="72" width="140" height="112" rx="30" stroke="#FFFFFF" stroke-opacity="0.55"/>

  <!-- Play glyph (RecipeTube "watch" vibe) -->
  <path d="M118 104.5c0-3.8 4.1-6.2 7.4-4.2l36.8 21.8c3.2 1.9 3.2 6.5 0 8.4l-36.8 21.8c-3.3 2-7.4-.4-7.4-4.2v-43.6z" fill="#1B120B" fill-opacity="0.88"/>

  <!-- Spoon arc (recipe vibe) -->
  <path d="M88 172c22-16 46-22 78-18" stroke="#1B120B" stroke-opacity="0.38" stroke-width="10" stroke-linecap="round"/>
  <path d="M166 158c7 5 12 11 14 18" stroke="#1B120B" stroke-opacity="0.32" stroke-width="10" stroke-linecap="round"/>
</svg>

